<svg id="visual" viewBox="0 0 960 540" width="960" height="540" xmlns="http://www.w3.org/2000/svg" xmlns:xlink="http://www.w3.org/1999/xlink" version="1.1"><rect x="0" y="0" width="960" height="540" fill="#FFFFFF"></rect><path d="M0 451L26.7 438C53.3 425 106.7 399 160 382.8C213.3 366.7 266.7 360.3 320 369.5C373.3 378.7 426.7 403.3 480 415.5C533.3 427.7 586.7 427.3 640 420.2C693.3 413 746.7 399 800 392.2C853.3 385.3 906.7 385.7 933.3 385.8L960 386L960 541L933.3 541C906.7 541 853.3 541 800 541C746.7 541 693.3 541 640 541C586.7 541 533.3 541 480 541C426.7 541 373.3 541 320 541C266.7 541 213.3 541 160 541C106.7 541 53.3 541 26.7 541L0 541Z" fill="#8a2be2" stroke-linecap="round" stroke-linejoin="miter"></path></svg>